<?xml version="1.0" encoding="iso-8859-1"?>
<!-- Generator: Adobe Illustrator 18.1.1, SVG Export Plug-In . SVG Version: 6.00 Build 0)  -->
<svg version="1.1" id="Capa_1" xmlns="http://www.w3.org/2000/svg" xmlns:xlink="http://www.w3.org/1999/xlink" x="0px" y="0px"
	 viewBox="0 0 32 32" style="enable-background:new 0 0 32 32;" xml:space="preserve">
<g>
	<path style="fill:#010002;" d="M24,20c6,0,8-2,8-2c0-4-2-6-2-6c-2.752,1.835-5.918,2.822-8.547,3.36
		c0.97-0.464,2-1.157,3.031-2.188c4.244-4.243,4.244-7.071,4.244-7.071c-2.83-2.828-5.658-2.828-5.658-2.828
		c-0.648,3.243-2.188,6.18-3.668,8.418C19.762,10.676,20,9.458,20,8c0-6-2-8-2-8c-4,0-6,2-6,2c1.835,2.753,2.823,5.919,3.36,8.548
		c-0.464-0.971-1.157-2.001-2.189-3.034c-4.242-4.242-7.07-4.242-7.07-4.242C3.272,6.101,3.272,8.929,3.272,8.929
		c3.244,0.649,6.18,2.189,8.419,3.668C10.677,12.239,9.458,12,8,12c-6,0-8,2-8,2c0,4,2,6,2,6c2.753-1.835,5.919-2.822,8.548-3.359
		c-0.971,0.465-2.001,1.156-3.034,2.188c-4.243,4.241-4.243,7.069-4.243,7.069c2.829,2.828,5.657,2.828,5.657,2.828
		c0.649-3.242,2.189-6.181,3.668-8.42C12.239,21.322,12,22.541,12,24c0,6,2,8,2,8c4,0,6-2,6-2c-1.835-2.752-2.822-5.918-3.359-8.547
		c0.463,0.971,1.156,2.001,2.188,3.031c4.242,4.242,7.07,4.242,7.07,4.242c2.83-2.828,2.83-5.656,2.83-5.656
		c-3.246-0.647-6.184-2.188-8.422-3.668C21.32,19.761,22.541,20,24,20z"/>
</g>
<g>
</g>
<g>
</g>
<g>
</g>
<g>
</g>
<g>
</g>
<g>
</g>
<g>
</g>
<g>
</g>
<g>
</g>
<g>
</g>
<g>
</g>
<g>
</g>
<g>
</g>
<g>
</g>
<g>
</g>
</svg>
